<mxfile host="app.diagrams.net" modified="2024-03-01T18:59:48.030Z" agent="Mozilla/5.0 (Macintosh; Intel Mac OS X 10_15_7) AppleWebKit/537.36 (KHTML, like Gecko) Chrome/116.0.0.0 Safari/537.36" version="24.0.0" etag="v3MzK8zSkASAMi0_mpuW" type="github">
  <diagram name="Page-1" id="tcZN9UrdI6MWGXBtRE4r">
    <mxGraphModel>
      <root>
        <mxCell id="0" />
        <mxCell id="1" parent="0" />
      </root>
    </mxGraphModel>
  </diagram>
</mxfile>
